<?xml version="1.0" encoding="UTF-8" standalone="no"?>
<!-- Created with Inkscape (http://www.inkscape.org/) -->

<svg
   width="56.183327mm"
   height="12.888407mm"
   viewBox="0 0 56.183327 12.888406"
   version="1.1"
   id="svg5"
   inkscape:version="1.1.2 (b8e25be833, 2022-02-05)"
   sodipodi:docname="ecco-io-logo-ds.svg"
   xmlns:inkscape="http://www.inkscape.org/namespaces/inkscape"
   xmlns:sodipodi="http://sodipodi.sourceforge.net/DTD/sodipodi-0.dtd"
   xmlns="http://www.w3.org/2000/svg"
   xmlns:svg="http://www.w3.org/2000/svg">
  <sodipodi:namedview
     id="namedview7"
     pagecolor="#000000"
     bordercolor="#eeeeee"
     borderopacity="1"
     inkscape:pageshadow="0"
     inkscape:pageopacity="0"
     inkscape:pagecheckerboard="0"
     inkscape:document-units="mm"
     showgrid="false"
     inkscape:zoom="2.2078772"
     inkscape:cx="140.1799"
     inkscape:cy="144.9356"
     inkscape:window-width="1920"
     inkscape:window-height="1017"
     inkscape:window-x="-8"
     inkscape:window-y="-8"
     inkscape:window-maximized="1"
     inkscape:current-layer="layer1"
     inkscape:snap-global="false" />
  <defs
     id="defs2">
    <inkscape:path-effect
       effect="powermask"
       id="path-effect53178"
       is_visible="true"
       lpeversion="1"
       uri="#mask-powermask-path-effect53178"
       invert="false"
       hide_mask="false"
       background="false"
       background_color="#ffffffff" />
    <rect
       x="60.786266"
       y="370.12082"
       width="640.28198"
       height="258.00391"
       id="rect2700" />
  </defs>
  <g
     inkscape:label="Layer 1"
     inkscape:groupmode="layer"
     id="layer1"
     transform="translate(-43.789689,-106.04316)">
    <text
       xml:space="preserve"
       transform="scale(0.26458333)"
       id="text2698"
       style="font-style:normal;font-weight:normal;font-size:40px;line-height:1.25;font-family:sans-serif;white-space:pre;shape-inside:url(#rect2700);fill:#000000;fill-opacity:1;stroke:none" />
    <g
       aria-label="ECCo  IO"
       id="text3080"
       style="font-size:10.5796px;line-height:1.25;letter-spacing:0.99184px;fill:#0090b8;fill-opacity:1;stroke-width:0.330612"
       transform="matrix(0.88460992,0,0,0.88460992,8.86919,12.526729)">
      <path
         d="m 40.628768,108.42848 q 0.06348,1.35419 0.06348,2.90939 0,0.11637 -0.01058,0.4126 0,0.28565 -0.01058,0.66652 0,0.38086 -0.01058,0.80405 -0.01058,0.42318 -0.02116,0.81463 0,0.39144 -0.01058,0.69825 0,0.30681 0,0.45492 -0.190432,0.0423 -0.465502,0.0846 -0.26449,0.0317 -0.624196,0.0529 l -0.06348,0.23275 q 0.190433,-0.0106 0.655935,-0.0423 0.465503,-0.0212 1.195495,-0.0212 0.158694,0 0.433764,0 0.275069,0.0106 0.603037,0.0212 0.327967,0.0106 0.666515,0.0212 0.338547,0.0106 0.624196,0.0212 0.296229,0.0106 0.497241,0.0212 0.211592,0.0106 0.26449,0.0212 v 0.63477 l 0.222172,0.0423 q 0.02116,-0.30681 0.126955,-1.06854 0.105796,-0.77231 0.222172,-1.36477 l -0.243331,0.0635 q -0.07406,0.35971 -0.137535,0.59246 -0.0529,0.22217 -0.09522,0.32797 -0.53956,0.34912 -2.539104,0.38086 -0.01058,-0.17985 -0.02116,-0.47608 0,-0.30681 -0.01058,-0.66651 0,-0.35971 -0.01058,-0.74058 0,-0.38086 -0.01058,-0.70883 0,-0.32797 -0.01058,-0.5713 0,-0.24333 0,-0.32797 1.57636,0 2.063022,0.24333 0,0.0212 -0.01058,0.12696 -0.01058,0.1058 -0.02116,0.23275 0,0.12696 -0.01058,0.23275 0,0.1058 0,0.11638 l 0.211592,0.0741 q 0.03174,-0.22218 0.07406,-0.50783 0.04232,-0.28564 0.09522,-0.64535 0.105796,-0.70883 0.126956,-0.82521 l -0.232752,0.0212 q -0.03174,0.24333 -0.105796,0.45492 -0.402025,0.13754 -2.189977,0.17986 0,-1.50231 0.06348,-3.02577 0.275069,0 0.677094,0.0317 0.402025,0.0317 0.78289,0.0952 0.380866,0.0635 0.645356,0.14812 0.27507,0.0741 0.296229,0.16927 v 0.74057 l 0.211592,0.0846 q 0.01058,-0.0635 0.02116,-0.28565 0.02116,-0.22217 0.06348,-0.61361 0.04232,-0.46551 0.07406,-0.78289 0.04232,-0.32797 0.06348,-0.50783 l -0.253911,0.0423 q -0.02116,0.14812 -0.04232,0.31739 -0.02116,0.16927 -0.03174,0.17985 -0.07406,0.0212 -0.740572,0.0529 -0.666515,0.0317 -1.967806,0.0317 -0.137535,0 -0.465502,0 -0.317388,-0.0106 -0.687674,-0.0106 -0.359707,-0.0106 -0.687674,-0.0212 -0.317388,-0.0106 -0.454923,-0.0106 l 0.04232,0.20101 q 0.402025,0.0529 0.677095,0.0952 0.285649,0.0423 0.433763,0.0741 z m 3.946191,1.25897 0.02116,-0.0212 h -0.01058 q 0,0 -0.01058,0.0106 0,0 0,0.0106 z"
         style="font-family:'DS CenturyCapitals';-inkscape-font-specification:'DS CenturyCapitals';fill:#0090b8;fill-opacity:1"
         id="path50617" />
      <path
         d="m 53.681361,110.47034 q 0,-0.16927 0.02116,-0.5713 0.02116,-0.40202 0.06348,-1.06854 0.0529,-0.66651 0.08464,-1.06854 0.04232,-0.40202 0.06348,-0.55014 l -0.253911,0.0423 q 0,0.0423 -0.03174,0.17986 -0.02116,0.13753 -0.06348,0.28564 -0.03174,0.14812 -0.06348,0.28565 -0.03174,0.13754 -0.04232,0.17986 -1.163756,-0.27507 -2.211137,-0.27507 -1.184915,0 -2.094761,0.33855 -0.899266,0.33854 -1.512882,0.89926 -0.613617,0.55014 -0.931005,1.25897 -0.306809,0.69826 -0.306809,1.42825 0,1.00506 0.402025,1.73505 0.412605,0.73 1.06854,1.20608 0.666515,0.4655 1.502303,0.68767 0.846368,0.22217 1.713895,0.22217 0.856948,0 1.618679,-0.17985 0.761731,-0.16927 1.269552,-0.4655 l 0.137535,-0.45492 q -0.53956,0.28564 -1.121438,0.44434 -0.581878,0.15869 -1.227233,0.15869 -0.80405,0 -1.544622,-0.25391 -0.740572,-0.26449 -1.31187,-0.76173 -0.560719,-0.49724 -0.899266,-1.20607 -0.338548,-0.71942 -0.338548,-1.62926 0,-0.44434 0.179854,-0.9839 0.190432,-0.53956 0.571298,-0.99449 0.391445,-0.4655 0.983903,-0.77231 0.603037,-0.31739 1.428246,-0.31739 0.454923,0 0.899266,0.13754 0.444343,0.13753 0.79347,0.33855 0.349127,0.20101 0.571298,0.4126 0.232752,0.21159 0.27507,0.34913 0.06348,0.49724 0.06348,0.88868 z"
         style="font-family:'DS CenturyCapitals';-inkscape-font-specification:'DS CenturyCapitals';fill:#0090b8;fill-opacity:1"
         id="path50619" />
      <path
         d="m 62.808905,110.47034 q 0,-0.16927 0.02116,-0.5713 0.02116,-0.40202 0.06348,-1.06854 0.0529,-0.66651 0.08464,-1.06854 0.04232,-0.40202 0.06348,-0.55014 l -0.25391,0.0423 q 0,0.0423 -0.03174,0.17986 -0.02116,0.13753 -0.06348,0.28564 -0.03174,0.14812 -0.06348,0.28565 -0.03174,0.13754 -0.04232,0.17986 -1.163756,-0.27507 -2.211137,-0.27507 -1.184915,0 -2.094761,0.33855 -0.899266,0.33854 -1.512883,0.89926 -0.613616,0.55014 -0.931004,1.25897 -0.306809,0.69826 -0.306809,1.42825 0,1.00506 0.402025,1.73505 0.412604,0.73 1.06854,1.20608 0.666514,0.4655 1.502303,0.68767 0.846368,0.22217 1.713895,0.22217 0.856948,0 1.618679,-0.17985 0.761731,-0.16927 1.269552,-0.4655 l 0.137535,-0.45492 q -0.53956,0.28564 -1.121438,0.44434 -0.581878,0.15869 -1.227233,0.15869 -0.80405,0 -1.544622,-0.25391 -0.740572,-0.26449 -1.311871,-0.76173 -0.560718,-0.49724 -0.899266,-1.20607 -0.338547,-0.71942 -0.338547,-1.62926 0,-0.44434 0.179853,-0.9839 0.190433,-0.53956 0.571299,-0.99449 0.391445,-0.4655 0.983903,-0.77231 0.603037,-0.31739 1.428246,-0.31739 0.454923,0 0.899266,0.13754 0.444343,0.13753 0.79347,0.33855 0.349127,0.20101 0.571298,0.4126 0.232751,0.21159 0.27507,0.34913 0.06348,0.49724 0.06348,0.88868 z"
         style="font-family:'DS CenturyCapitals';-inkscape-font-specification:'DS CenturyCapitals';fill:#0090b8;fill-opacity:1"
         id="path50621" />
      <path
         d="m 68.889523,107.93124 q -1.06854,0.0952 -1.85143,0.45492 -0.782891,0.35971 -1.301291,0.92043 -0.5184,0.55013 -0.78289,1.25897 -0.26449,0.70883 -0.296229,1.48114 0,0.35971 0.105796,0.77231 0.105796,0.40203 0.327967,0.80405 0.232752,0.40203 0.581878,0.78289 0.359707,0.37029 0.856948,0.65594 0.497241,0.28565 1.142597,0.45492 0.645355,0.16927 1.459985,0.16927 1.015641,0 1.830271,-0.32796 0.814629,-0.32797 1.385927,-0.89927 0.581878,-0.5713 0.888687,-1.34361 0.306808,-0.77231 0.306808,-1.65042 0,-0.76173 -0.285649,-1.40708 -0.285649,-0.65594 -0.825209,-1.13202 -0.52898,-0.47608 -1.290711,-0.74057 -0.751152,-0.27507 -1.692736,-0.27507 -0.179854,0 -0.327968,0.0106 -0.137535,0 -0.232751,0.0106 z m -0.698254,0.47608 q 0.169274,-0.0529 0.391445,-0.0635 0.222172,-0.0212 0.454923,-0.0212 0.708833,0 1.301291,0.35971 0.592458,0.34913 1.015642,0.90984 0.433763,0.55014 0.666515,1.2484 0.24333,0.69825 0.24333,1.37535 0,0.71941 -0.25391,1.29071 -0.243331,0.56072 -0.655935,0.95216 -0.412605,0.38087 -0.941585,0.59246 -0.5184,0.20101 -1.068539,0.20101 -0.634776,0 -1.248393,-0.28565 -0.613617,-0.29623 -1.100279,-0.80405 -0.486661,-0.50782 -0.78289,-1.19549 -0.296229,-0.69826 -0.296229,-1.52347 0,-0.50782 0.126955,-0.9839 0.126956,-0.48666 0.402025,-0.88868 0.285649,-0.40203 0.708833,-0.70884 0.433764,-0.30681 1.036801,-0.45492 z"
         style="font-family:'DS CenturyCapitals';-inkscape-font-specification:'DS CenturyCapitals';fill:#0090b8;fill-opacity:1"
         id="path50623" />
      <path
         d="m 89.702247,108.2592 q 0.507821,0.0741 0.78289,0.11638 0.27507,0.0317 0.327968,0.0529 0.01058,0.61362 0.04232,1.57636 0.03174,0.95216 0.03174,2.0736 0,0.5184 -0.01058,1.0368 -0.01058,0.50782 -0.02116,0.94159 -0.01058,0.42318 -0.03174,0.72999 -0.01058,0.29623 -0.01058,0.38086 -0.116376,0.0212 -0.296229,0.0529 -0.169273,0.0212 -0.349127,0.0423 -0.169273,0.0212 -0.306808,0.0423 -0.137535,0.0106 -0.179853,0.0212 l -0.04232,0.21159 q 0.06348,0 0.306809,-0.0106 0.25391,-0.0106 0.52898,-0.0212 0.285649,0 0.52898,-0.0106 0.243331,0 0.317388,0 0.105796,0 0.380866,0 0.285649,0.0106 0.603037,0.0106 0.317388,0.0106 0.603037,0.0212 0.285649,0.0106 0.391445,0.0106 l -0.06348,-0.21159 q -0.04232,0 -0.211592,-0.0212 -0.158694,-0.0212 -0.349127,-0.0423 -0.190433,-0.0212 -0.359707,-0.0423 -0.158694,-0.0317 -0.201012,-0.0529 -0.02116,-0.27507 -0.06348,-4.13662 0,-0.0741 0,-0.28565 0,-0.21159 0,-0.48666 0.01058,-0.27507 0.01058,-0.58188 0.01058,-0.30681 0.02116,-0.56072 0.01058,-0.26449 0.01058,-0.45492 0.01058,-0.19043 0.02116,-0.23275 0.550139,-0.0741 0.825209,-0.1058 0.275069,-0.0423 0.296229,-0.0423 l 0.06348,-0.22217 q -0.243331,0.0212 -0.613617,0.0423 -0.370286,0.0212 -0.867527,0.0212 -0.116375,0 -0.433764,-0.0106 -0.306808,-0.0106 -0.655935,-0.0212 -0.349127,-0.0106 -0.666515,-0.0212 -0.306808,-0.0106 -0.423184,-0.0106 z"
         style="font-family:'DS CenturyCapitals';-inkscape-font-specification:'DS CenturyCapitals';fill:#0090b8;fill-opacity:1"
         id="path50625" />
      <path
         d="m 98.33255,107.93124 q -1.068539,0.0952 -1.85143,0.45492 -0.78289,0.35971 -1.301291,0.92043 -0.5184,0.55013 -0.78289,1.25897 -0.26449,0.70883 -0.296229,1.48114 0,0.35971 0.105796,0.77231 0.105796,0.40203 0.327968,0.80405 0.232751,0.40203 0.581878,0.78289 0.359706,0.37029 0.856947,0.65594 0.497242,0.28565 1.142597,0.45492 0.645356,0.16927 1.459985,0.16927 1.015642,0 1.830269,-0.32796 0.81463,-0.32797 1.38593,-0.89927 0.58188,-0.5713 0.88869,-1.34361 0.3068,-0.77231 0.3068,-1.65042 0,-0.76173 -0.28564,-1.40708 -0.28565,-0.65594 -0.82521,-1.13202 -0.52898,-0.47608 -1.29071,-0.74057 -0.751156,-0.27507 -1.692741,-0.27507 -0.179853,0 -0.327967,0.0106 -0.137535,0 -0.232752,0.0106 z m -0.698253,0.47608 q 0.169273,-0.0529 0.391445,-0.0635 0.222172,-0.0212 0.454923,-0.0212 0.708833,0 1.301291,0.35971 0.592454,0.34913 1.015644,0.90984 0.43376,0.55014 0.66651,1.2484 0.24333,0.69825 0.24333,1.37535 0,0.71941 -0.25391,1.29071 -0.24333,0.56072 -0.65593,0.95216 -0.41261,0.38087 -0.941587,0.59246 -0.518401,0.20101 -1.06854,0.20101 -0.634776,0 -1.248393,-0.28565 -0.613617,-0.29623 -1.100278,-0.80405 -0.486662,-0.50782 -0.782891,-1.19549 -0.296228,-0.69826 -0.296228,-1.52347 0,-0.50782 0.126955,-0.9839 0.126955,-0.48666 0.402025,-0.88868 0.285649,-0.40203 0.708833,-0.70884 0.433763,-0.30681 1.036801,-0.45492 z"
         style="font-family:'DS CenturyCapitals';-inkscape-font-specification:'DS CenturyCapitals';fill:#0090b8;fill-opacity:1"
         id="path50627" />
    </g>
    <g
       id="g8833"
       transform="translate(0,1.0583333)">
      <path
         style="fill:none;fill-opacity:1;stroke:#b0b092;stroke-width:0.8;stroke-linecap:square;stroke-linejoin:round;stroke-miterlimit:4;stroke-dasharray:none;stroke-opacity:1;paint-order:fill markers stroke"
         id="rect30441-1-3"
         width="8.8904495"
         height="8.8904495"
         x="133.23845"
         y="4.6930833"
         ry="0.93591273"
         transform="rotate(49.941724)"
         inkscape:transform-center-x="0.41213429"
         inkscape:transform-center-y="5.1811964"
         clip-path="none"
         sodipodi:type="rect"
         mask="none"
         d="m 134.17436,4.6930833 h 7.01863 c 0.51849,0 0.93591,0.4174171 0.93591,0.9359127 v 7.018624 c 0,0.518496 -0.41742,0.935913 -0.93591,0.935913 h -7.01863 c -0.51849,0 -0.93591,-0.417417 -0.93591,-0.935913 V 5.628996 c 0,-0.5184956 0.41742,-0.9359127 0.93591,-0.9359127 z" />
      <ellipse
         style="fill:none;fill-opacity:1;stroke:#b0b092;stroke-width:0.6;stroke-linecap:square;stroke-linejoin:round;stroke-miterlimit:4;stroke-dasharray:none;stroke-opacity:1;paint-order:fill markers stroke"
         id="ellipse53166"
         ry="0.93634576"
         rx="0.92449343"
         cy="108.60747"
         cx="81.877533" />
      <ellipse
         style="fill:none;fill-opacity:1;stroke:#b0b092;stroke-width:0.6;stroke-linecap:square;stroke-linejoin:round;stroke-miterlimit:4;stroke-dasharray:none;stroke-opacity:1;paint-order:fill markers stroke"
         id="ellipse53168"
         ry="0.93634576"
         rx="0.92449343"
         cy="110.86009"
         cx="78.58889" />
      <ellipse
         style="fill:none;fill-opacity:1;stroke:#b0b092;stroke-width:0.6;stroke-linecap:square;stroke-linejoin:round;stroke-miterlimit:4;stroke-dasharray:none;stroke-opacity:1;paint-order:fill markers stroke"
         id="ellipse53170"
         ry="0.93634576"
         rx="0.92449343"
         cy="111.34383"
         cx="81.412613" />
      <ellipse
         style="fill:none;fill-opacity:1;stroke:#b0b092;stroke-width:0.6;stroke-linecap:square;stroke-linejoin:round;stroke-miterlimit:4;stroke-dasharray:none;stroke-opacity:1;paint-order:fill markers stroke"
         id="ellipse53172"
         ry="0.93634576"
         rx="0.92449343"
         cy="113.96025"
         cx="82.113182" />
      <ellipse
         style="fill:none;fill-opacity:1;stroke:#b0b092;stroke-width:0.6;stroke-linecap:square;stroke-linejoin:round;stroke-miterlimit:4;stroke-dasharray:none;stroke-opacity:1;paint-order:fill markers stroke"
         id="ellipse53174"
         cx="84.021286"
         cy="111.18059"
         rx="0.92449343"
         ry="0.93634576" />
    </g>
  </g>
</svg>
